<svg xmlns="http://www.w3.org/2000/svg" xmlns:xlink="http://www.w3.org/1999/xlink" version="1.1" width="210.647pt" height="166.209pt" viewBox="0 0 210.647 166.209">
<path transform="matrix(1,0,0,-1,19.982,146.892)" stroke-width=".3985" stroke-linecap="butt" stroke-miterlimit="10" stroke-linejoin="miter" fill="none" stroke="#000000" d="M0 0H170.10161L85.0508 127.57619Z"/>
<text xml:space="preserve" transform="matrix(1 0 -0 1 .0000009536743 166.209)" font-size="9.9626" font-family="CMMI10" font-style="italic"><tspan y="-8.99" x="8.99">A</tspan></text>
<text xml:space="preserve" transform="matrix(1 0 -0 1 0 166.209)" font-size="9.9626" font-family="CMMI10" font-style="italic"><tspan y="-8.99" x="193.601">B</tspan></text>
<text xml:space="preserve" transform="matrix(1 0 -0 1 .0000076293949 166.209)" font-size="9.9626" font-family="CMMI10" font-style="italic"><tspan y="-150.412" x="101.115">C</tspan></text>
<path transform="matrix(1,0,0,-1,19.982,146.892)" stroke-width=".3985" stroke-linecap="butt" stroke-miterlimit="10" stroke-linejoin="miter" fill="none" stroke="#000000" d="M85.0508 8.5039"/>
<text xml:space="preserve" transform="matrix(1 0 -0 1 0 166.20899)" font-size="9.9626" font-family="CMMI10" font-style="italic"><tspan y="-20.012" x="102.876">c</tspan></text>
<path transform="matrix(1,0,0,-1,19.982,146.892)" stroke-width=".3985" stroke-linecap="butt" stroke-miterlimit="10" stroke-linejoin="miter" fill="none" stroke="#000000" d="M120.50081 59.07121"/>
<text xml:space="preserve" transform="matrix(1 0 -0 1 -.000015258789 166.209)" font-size="9.9626" font-family="CMMI10" font-style="italic"><tspan y="-76.243" x="144.001">a</tspan></text>
<path transform="matrix(1,0,0,-1,19.982,146.892)" stroke-width=".3985" stroke-linecap="butt" stroke-miterlimit="10" stroke-linejoin="miter" fill="none" stroke="#000000" d="M49.60075 59.07121"/>
<text xml:space="preserve" transform="matrix(1 0 -0 1 .0000038146974 166.209)" font-size="9.9626" font-family="CMMI10" font-style="italic"><tspan y="-74.929" x="61.786">b</tspan></text>
<path transform="matrix(1,0,0,-1,19.982,146.892)" stroke-width=".3985" stroke-linecap="butt" stroke-miterlimit="10" stroke-linejoin="miter" fill="none" stroke="#000000" d="M14.17339 0C14.17339 4.73778 11.80348 9.16457 7.86157 11.79247"/>
<path transform="matrix(1,0,0,-1,19.982,146.892)" stroke-width=".3985" stroke-linecap="butt" stroke-miterlimit="10" stroke-linejoin="miter" fill="none" stroke="#000000" d="M162.21927 11.79247C158.27736 9.16457 155.90746 4.73778 155.90746 0"/>
<path transform="matrix(1,0,0,-1,19.982,146.892)" stroke-width=".3985" stroke-linecap="butt" stroke-miterlimit="10" stroke-linejoin="miter" fill="none" stroke="#000000" d="M77.17883 115.76816C81.93877 112.59491 88.14207 112.59491 92.90201 115.76816"/>
</svg>
